<svg width="94" height="36" viewBox="0 0 94 36" fill="none" xmlns="http://www.w3.org/2000/svg">
<rect x="38.1539" width="8.02096" height="35.4611" fill="white"/>
<path d="M25.9113 35.4611L32.0144 0H39.8424L33.7392 35.4611H25.9113Z" fill="white"/>
<rect x="33.9324" y="23.6407" width="7.59881" height="6.33234" fill="white"/>
<path d="M12.1062 14.3402L24.2123 35.5791H-2.28882e-05L12.1062 14.3402Z" fill="white"/>
<path d="M58.6285 14.259H66.5228L63.3989 24.1797L66.7339 35.3668H58.7129L57.4887 27.0503H56.8977L55.6734 35.3668H47.6524L50.9875 24.1797L47.8635 14.259H55.7578L57.0243 22.3644H57.362L58.6285 14.259Z" fill="white"/>
<path d="M67.596 35.3668V14.259H75.1948V35.3668H67.596ZM71.3532 4.97156C73.8439 4.97156 75.3215 5.98473 75.3215 8.01108V9.74192C75.3215 11.7683 73.8439 12.7814 71.3532 12.7814C68.9469 12.7814 67.4694 11.7683 67.4694 9.74192V8.01108C67.4694 5.98473 68.9469 4.97156 71.3532 4.97156Z" fill="white"/>
<path d="M83.8589 20.6335C83.8589 22.7443 93.3152 22.7443 93.3152 29.7521V30.0898C93.3152 33.8048 90.0646 36 84.7877 36C79.7218 36 76.4712 33.8048 76.4712 29.2455V27.7258H83.8589V29.2455C83.8589 30.1321 83.9011 30.512 84.7877 30.512C85.6742 30.512 85.7164 30.1321 85.7164 29.4988V29.1611C85.7164 25.6572 76.2601 26.5437 76.2601 20.0425V19.5359C76.2601 15.821 79.5107 13.6258 84.7877 13.6258C89.8535 13.6258 93.1041 15.821 93.1041 20.3803V21.4779H85.7164V20.3803C85.7164 19.4937 85.6742 19.1138 84.7877 19.1138C83.9011 19.1138 83.8589 19.4937 83.8589 20.127V20.6335Z" fill="white"/>
</svg>
